<svg xmlns="http://www.w3.org/2000/svg" viewBox="0 0 512 512" width="512" height="512">
  <defs>
    <!-- Main Gradient -->
    <linearGradient id="shieldGradient" x1="0%" y1="0%" x2="100%" y2="100%">
      <stop offset="0%" style="stop-color:#1a1a2e"/>
      <stop offset="50%" style="stop-color:#16213e"/>
      <stop offset="100%" style="stop-color:#0f0f23"/>
    </linearGradient>
    
    <!-- Glow Effect -->
    <filter id="glow" x="-50%" y="-50%" width="200%" height="200%">
      <feGaussianBlur stdDeviation="8" result="coloredBlur"/>
      <feMerge>
        <feMergeNode in="coloredBlur"/>
        <feMergeNode in="SourceGraphic"/>
      </feMerge>
    </filter>
    
    <!-- Inner Shadow -->
    <filter id="innerShadow" x="-50%" y="-50%" width="200%" height="200%">
      <feGaussianBlur in="SourceAlpha" stdDeviation="4" result="blur"/>
      <feOffset dy="2" dx="2"/>
      <feComposite in2="SourceAlpha" operator="arithmetic" k2="-1" k3="1"/>
      <feColorMatrix type="matrix" values="0 0 0 0 0  0 0 0 0 0  0 0 0 0 0  0 0 0 0.3 0"/>
      <feBlend in2="SourceGraphic"/>
    </filter>
    
    <!-- Circuit Pattern -->
    <pattern id="circuit" x="0" y="0" width="40" height="40" patternUnits="userSpaceOnUse">
      <line x1="0" y1="20" x2="40" y2="20" stroke="#667eea" stroke-width="0.5" opacity="0.2"/>
      <line x1="20" y1="0" x2="20" y2="40" stroke="#667eea" stroke-width="0.5" opacity="0.2"/>
      <circle cx="20" cy="20" r="2" fill="#667eea" opacity="0.3"/>
    </pattern>
  </defs>
  
  <!-- Background Circle (optional, can be removed for transparent) -->
  <circle cx="256" cy="256" r="250" fill="#0a0a0f"/>
  
  <!-- Outer Glow Ring -->
  <circle cx="256" cy="256" r="230" fill="none" stroke="#00ff88" stroke-width="2" opacity="0.3" filter="url(#glow)"/>
  
  <!-- Shield Shape - Outer -->
  <path d="M256 50 L430 120 L430 260 Q430 400 256 470 Q82 400 82 260 L82 120 Z" 
        fill="url(#shieldGradient)" 
        stroke="#00ff88" 
        stroke-width="4"
        filter="url(#glow)"/>
  
  <!-- Shield Pattern Overlay -->
  <path d="M256 50 L430 120 L430 260 Q430 400 256 470 Q82 400 82 260 L82 120 Z" 
        fill="url(#circuit)" 
        opacity="0.5"/>
  
  <!-- Shield Shape - Inner -->
  <path d="M256 90 L390 145 L390 260 Q390 370 256 425 Q122 370 122 260 L122 145 Z" 
        fill="rgba(0,0,0,0.4)" 
        stroke="#667eea" 
        stroke-width="2"/>
  
  <!-- Lock Body -->
  <rect x="196" y="245" width="120" height="95" rx="12" 
        fill="#00ff88" 
        filter="url(#glow)"/>
  
  <!-- Lock Body Inner Shadow -->
  <rect x="196" y="245" width="120" height="95" rx="12" 
        fill="none" 
        stroke="rgba(0,0,0,0.3)" 
        stroke-width="4"/>
  
  <!-- Lock Shackle -->
  <path d="M216 245 L216 200 Q216 155 256 155 Q296 155 296 200 L296 245" 
        fill="none" 
        stroke="#00ff88" 
        stroke-width="20" 
        stroke-linecap="round"
        filter="url(#glow)"/>
  
  <!-- Lock Shackle Inner -->
  <path d="M226 245 L226 205 Q226 170 256 170 Q286 170 286 205 L286 245" 
        fill="none" 
        stroke="#0a0a0f" 
        stroke-width="8" 
        stroke-linecap="round"/>
  
  <!-- Keyhole Circle -->
  <circle cx="256" cy="280" r="18" fill="#0a0a0f"/>
  
  <!-- Keyhole Bottom -->
  <rect x="248" y="290" width="16" height="30" rx="4" fill="#0a0a0f"/>
  
  <!-- Binary Decorations -->
  <text x="130" y="380" fill="#667eea" font-size="24" font-family="monospace" opacity="0.5">01</text>
  <text x="350" y="380" fill="#667eea" font-size="24" font-family="monospace" opacity="0.5">10</text>
  <text x="130" y="170" fill="#667eea" font-size="18" font-family="monospace" opacity="0.4">11</text>
  <text x="355" y="170" fill="#667eea" font-size="18" font-family="monospace" opacity="0.4">00</text>
  
  <!-- Circuit Lines -->
  <line x1="140" y1="200" x2="180" y2="240" stroke="#667eea" stroke-width="2" opacity="0.4"/>
  <line x1="372" y1="200" x2="332" y2="240" stroke="#667eea" stroke-width="2" opacity="0.4"/>
  <line x1="160" y1="320" x2="190" y2="290" stroke="#a855f7" stroke-width="2" opacity="0.3"/>
  <line x1="352" y1="320" x2="322" y2="290" stroke="#a855f7" stroke-width="2" opacity="0.3"/>
  
  <!-- Corner Nodes -->
  <circle cx="140" cy="200" r="5" fill="#667eea" opacity="0.6"/>
  <circle cx="372" cy="200" r="5" fill="#667eea" opacity="0.6"/>
  <circle cx="160" cy="320" r="5" fill="#a855f7" opacity="0.5"/>
  <circle cx="352" cy="320" r="5" fill="#a855f7" opacity="0.5"/>
  
  <!-- Highlight Shine -->
  <ellipse cx="200" cy="130" rx="60" ry="20" fill="white" opacity="0.05"/>
</svg>
